<?xml version="1.0" encoding="UTF-8"?><svg id="Layer_2" xmlns="http://www.w3.org/2000/svg" xmlns:xlink="http://www.w3.org/1999/xlink" viewBox="0 0 861.84 187"><defs><style>.cls-1{fill:none;}.cls-2{clip-path:url(#clippath);}.cls-3{fill:#fff;}.cls-4{fill:#233022;}</style><clipPath id="clippath"><polygon class="cls-1" points="170.47 99.98 137.61 98.16 129.36 101.07 114.01 89.44 99.42 84.32 85.92 88.17 78.9 81.5 78.9 68.52 62.73 67.32 54.27 58.86 58.95 48.11 67.51 45.11 173.76 99.4 170.47 99.98"/></clipPath></defs><g id="Layer_1-2"><path class="cls-4" d="m212.67,64.41c0-17.56,10.56-31.31,29.3-31.31,13.47,0,22.75,6.92,27.03,18.84l-8.92,6.55c-1.91-9.19-7.55-15.65-18.02-15.65-12.56,0-18.47,8.92-18.47,21.57s5.92,21.57,18.47,21.57c10.47,0,16.11-6.55,18.02-15.65l8.92,6.55c-4.28,11.83-13.56,18.84-27.03,18.84-18.75,0-29.3-13.74-29.3-31.31Z"/><path class="cls-4" d="m277.73,94.99v-60.97h10.19v28.76c1.64-7.01,6.19-13.01,15.02-13.01s13.92,5.19,13.92,14.38v30.85h-10.28v-27.76c0-5.46-1.82-9.19-8.64-9.19-7.46,0-10.01,4.82-10.01,12.1v24.84h-10.19Z"/><path class="cls-4" d="m325.14,85.44c0-6.28,4.37-10.1,11.56-12.92l14.83-6.28c-.36-4.46-2.37-7.46-8.46-7.46s-10.56,3.46-13.1,8.1l-6.1-7.28c3.46-4.73,10.37-9.83,20.2-9.83,11.01,0,17.2,6.28,17.2,17.2v16.65c0,2,.73,2.64,2.37,2.64h2.82v8.74h-6.28c-4.73,0-8.46-2.18-8.46-8.55v-3.28c-1.36,5.82-5.64,12.74-14.92,12.74-7.28,0-11.65-4.09-11.65-10.47Zm15.29,2.55c6.73,0,11.28-4,11.28-10.01v-4.73l-11.38,5.1c-3.82,1.73-5.37,3.28-5.37,5.55,0,2.55,1.73,4.09,5.46,4.09Z"/><path class="cls-4" d="m374.28,94.99v-60.97h10.19v60.97h-10.19Z"/><path class="cls-4" d="m394.93,81.52v-30.85h10.19v27.76c0,5.46,1.82,9.19,8.65,9.19,7.46,0,10.01-4.82,10.01-12.1v-24.84h10.28v44.32h-10.28v-12.1c-1.64,7.01-6.19,13.01-15.02,13.01s-13.83-5.19-13.83-14.38Z"/><path class="cls-4" d="m444.8,111.92v-61.25h10.19v11.83c1.46-6.92,5.37-12.83,14.2-12.83,10.74,0,17.65,8.83,17.65,23.12s-6.92,23.11-17.84,23.11c-8.83,0-12.56-5.92-14.01-12.74v28.76h-10.19Zm20.39-24.3c6.37,0,11.19-4.82,11.19-14.83s-4.82-14.83-11.19-14.83c-7.19,0-10.19,4.82-10.19,12.1v5.46c0,7.28,3,12.1,10.19,12.1Z"/><path class="cls-4" d="m493.03,85.44c0-6.28,4.37-10.1,11.56-12.92l14.83-6.28c-.36-4.46-2.37-7.46-8.46-7.46s-10.56,3.46-13.1,8.1l-6.1-7.28c3.46-4.73,10.37-9.83,20.2-9.83,11.01,0,17.2,6.28,17.2,17.2v16.65c0,2,.73,2.64,2.37,2.64h2.82v8.74h-6.28c-4.73,0-8.46-2.18-8.46-8.55v-3.28c-1.36,5.82-5.64,12.74-14.92,12.74-7.28,0-11.65-4.09-11.65-10.47Zm15.29,2.55c6.73,0,11.28-4,11.28-10.01v-4.73l-11.38,5.1c-3.82,1.73-5.37,3.28-5.37,5.55,0,2.55,1.73,4.09,5.46,4.09Z"/><path class="cls-4" d="m559.64,81.43l7.28-7.37c3.28,8.92,12.47,12.38,19.93,12.38,6.1,0,11.01-2.18,11.01-7.74,0-5.92-4.91-7.55-12.83-9.28l-5.73-1.27c-8.65-1.82-17.84-5.73-17.84-17.29s9.92-17.65,21.39-17.65,20.11,4.64,24.48,13.01l-7.73,7.37c-3.37-7.55-9.92-10.83-17.38-10.83-5.82,0-10.01,2.73-10.01,7.37,0,5.37,4.19,7.28,10.83,8.92l6.82,1.64c9.74,2.37,18.47,6.19,18.47,17.84,0,11.01-9.28,17.38-21.66,17.38-11.65,0-22.3-4.19-27.03-14.47Z"/><path class="cls-4" d="m615.42,72.88c0-13.92,8.65-23.12,21.11-23.12,13.29,0,20.66,8.83,20.66,21.11,0,1.64-.18,3.55-.36,4.46h-31.67c.55,7.92,5.19,12.19,12.19,12.19,7.74,0,11.19-4,12.83-7.74l6.28,6.55c-3.37,5.1-9.37,9.56-19.2,9.56-13.19,0-21.84-9.19-21.84-23.02Zm9.83-4.1h22.75c-.73-7.01-4.73-10.83-11.47-10.83-6.28,0-10.47,3.64-11.28,10.83Z"/><path class="cls-4" d="m650.08,106.55l5.46-7.74c1.36,2.55,3.73,4.64,7.01,4.64s5.01-1.64,5.01-6.19v-46.59h10.19v46.87c0,9.19-5.64,15.29-14.01,15.29-7.46,0-11.56-3.73-13.65-6.28Zm17.47-62.16v-10.37h10.19v10.37h-10.19Z"/><path class="cls-4" d="m688.48,94.99v-60.97h10.19v27.94l-.36,8.55,7.28-8.01,12.1-11.83h12.47l-17.93,17.47,17.93,26.85h-11.92l-12.92-20.75-6.64,6.55v14.2h-10.19Z"/><path class="cls-4" d="m730.8,72.88c0-13.83,8.74-23.12,21.48-23.12s21.66,9.28,21.66,23.12-8.74,23.02-21.66,23.02-21.48-9.28-21.48-23.02Zm32.76,0c0-10.28-4.55-14.65-11.19-14.65s-11.1,4.37-11.1,14.65,4.55,14.56,11.1,14.56,11.19-4.37,11.19-14.56Z"/><path class="cls-4" d="m782.67,94.99v-44.32h10.19v12.56c1.64-7.1,6.1-13.47,14.01-13.47,5.55,0,9.65,3.64,9.65,10.19,0,4.28-1.18,7.46-2,8.83h-10.47c1.46-1.46,2.82-4.37,2.82-6.92s-1.18-4.46-4.19-4.46c-5.1,0-9.83,5.82-9.83,13.2v24.39h-10.19Z"/><path class="cls-4" d="m820.52,85.44c0-6.28,4.37-10.1,11.56-12.92l14.83-6.28c-.36-4.46-2.37-7.46-8.46-7.46s-10.56,3.46-13.1,8.1l-6.1-7.28c3.46-4.73,10.37-9.83,20.2-9.83,11.01,0,17.2,6.28,17.2,17.2v16.65c0,2,.73,2.64,2.37,2.64h2.82v8.74h-6.28c-4.73,0-8.46-2.18-8.46-8.55v-3.28c-1.36,5.82-5.64,12.74-14.92,12.74-7.28,0-11.65-4.09-11.65-10.47Zm15.29,2.55c6.73,0,11.28-4,11.28-10.01v-4.73l-11.38,5.1c-3.82,1.73-5.37,3.28-5.37,5.55,0,2.55,1.73,4.09,5.46,4.09Z"/><path class="cls-4" d="m216.89,137.41v-13.97h4.08v14.01c0,4.84,1.64,6.81,5.64,6.81s5.64-1.97,5.64-6.81v-14.01h4.08v13.97c0,7.39-3.09,10.77-9.75,10.77s-9.68-3.38-9.68-10.77Z"/><path class="cls-4" d="m240.58,147.81v-24.38h4.08v11.43c.58-2.77,2.15-5.13,5.68-5.13,4.33,0,7.1,3.53,7.1,9.24s-2.77,9.24-7.17,9.24c-3.53,0-5.02-2.37-5.6-5.1v4.69h-4.08Zm8.15-2.91c2.58,0,4.51-1.93,4.51-5.93s-1.93-5.93-4.51-5.93c-2.87,0-4.08,1.93-4.08,4.84v2.22c0,2.91,1.2,4.8,4.08,4.8Z"/><path class="cls-4" d="m258.09,151.2l1.93-3.28c.95,1.35,2.04,2.37,3.68,2.37,1.38,0,2.26-.62,2.91-2.58l.33-.98h-2.51l-5.86-16.63h4.48l3.2,10.04,1.27,4.73,1.27-4.73,3.17-10.04h4.51l-6.55,18.96c-1.27,3.57-3.35,4.84-6.22,4.84-2.55,0-4.62-1.31-5.6-2.69Z"/><path class="cls-4" d="m279.53,142.97v-9.72h-2.77v-3.17h2.77v-2.15l4.08-2.58v4.73h5.42v3.17h-5.42v8.73c0,1.93.91,2.4,2.11,2.4,1.38,0,2.4-1.13,2.91-2.15l1.27,3.64c-.76,1.13-2.51,2.33-5.1,2.33-3.35,0-5.28-2.11-5.28-5.24Z"/><path class="cls-4" d="m290.37,138.97c0-5.53,3.49-9.24,8.59-9.24s8.66,3.71,8.66,9.24-3.49,9.21-8.66,9.21-8.59-3.71-8.59-9.21Zm13.1,0c0-4.11-1.82-5.86-4.48-5.86s-4.44,1.75-4.44,5.86,1.82,5.82,4.44,5.82,4.48-1.75,4.48-5.82Z"/><path class="cls-4" d="m314.58,147.81l-6.3-17.72h4.51l3.02,9.64,1.46,5.42,1.42-5.42,2.98-9.64h4.44l-6.33,17.72h-5.2Z"/><path class="cls-4" d="m327.17,143.99c0-2.51,1.75-4.04,4.62-5.17l5.93-2.51c-.15-1.78-.95-2.98-3.38-2.98s-4.22,1.38-5.24,3.24l-2.44-2.91c1.38-1.89,4.15-3.93,8.08-3.93,4.4,0,6.88,2.51,6.88,6.88v6.66c0,.8.29,1.06.95,1.06h1.13v3.49h-2.51c-1.89,0-3.38-.87-3.38-3.42v-1.31c-.55,2.33-2.26,5.1-5.97,5.1-2.91,0-4.66-1.64-4.66-4.19Zm6.11,1.02c2.69,0,4.51-1.6,4.51-4v-1.89l-4.55,2.04c-1.53.69-2.15,1.31-2.15,2.22,0,1.02.69,1.64,2.18,1.64Zm-.18-17.1l2.77-4.33h5.06l-4.26,4.33h-3.57Z"/><path class="cls-4" d="m346.83,147.81v-17.72h4.08v4.84c.65-2.8,2.47-5.2,6-5.2s5.57,2.07,5.57,5.75v12.34h-4.11v-11.1c0-2.18-.73-3.68-3.46-3.68-2.98,0-4,1.93-4,4.84v9.94h-4.08Z"/><path class="cls-4" d="m366.67,147.81v-17.72h4.08v17.72h-4.08Zm.22-19.91l2.77-4.33h5.06l-4.26,4.33h-3.57Z"/><path class="cls-4" d="m386.94,147.81l-6.3-17.72h4.51l3.02,9.64,1.46,5.42,1.42-5.42,2.98-9.64h4.44l-6.33,17.72h-5.2Z"/><path class="cls-4" d="m398.99,138.97c0-5.57,3.46-9.24,8.44-9.24,5.31,0,8.26,3.53,8.26,8.44,0,.65-.07,1.42-.15,1.78h-12.66c.22,3.17,2.07,4.88,4.88,4.88,3.09,0,4.48-1.6,5.13-3.09l2.51,2.62c-1.35,2.04-3.75,3.82-7.68,3.82-5.28,0-8.73-3.68-8.73-9.21Zm3.93-1.64h9.1c-.29-2.8-1.89-4.33-4.59-4.33-2.51,0-4.18,1.46-4.51,4.33Z"/><path class="cls-4" d="m433.86,147.81l-8.92-24.38h4.69l4.84,14.23,1.82,7.02,1.86-7.02,4.84-14.23h4.48l-8.92,24.38h-4.69Z"/><path class="cls-4" d="m446.93,151.2l1.93-3.28c.95,1.35,2.04,2.37,3.68,2.37,1.38,0,2.26-.62,2.91-2.58l.33-.98h-2.51l-5.86-16.63h4.48l3.2,10.04,1.27,4.73,1.27-4.73,3.17-10.04h4.51l-6.55,18.96c-1.27,3.57-3.35,4.84-6.22,4.84-2.55,0-4.62-1.31-5.6-2.69Z"/><path class="cls-4" d="m465.71,143.85l2.4-2.55c.98,1.78,3.17,3.6,6.33,3.6,1.75,0,2.88-.62,2.88-1.89s-1.35-1.75-3.31-2.22l-2.37-.58c-2.8-.65-5.39-1.89-5.39-5.13s2.66-5.31,6.73-5.31c3.79,0,6.44,1.82,7.53,3.82l-2.4,2.55c-1.24-1.96-3.13-3.13-5.42-3.13-1.56,0-2.62.65-2.62,1.86,0,1.27.95,1.75,3.35,2.37l2.15.55c3.97,1.02,5.42,2.62,5.42,5.17,0,3.49-2.95,5.24-6.7,5.24s-7.24-1.53-8.59-4.33Z"/><path class="cls-4" d="m482.74,138.97c0-5.53,3.49-9.24,8.59-9.24s8.66,3.71,8.66,9.24-3.49,9.21-8.66,9.21-8.59-3.71-8.59-9.21Zm13.1,0c0-4.11-1.82-5.86-4.48-5.86s-4.44,1.75-4.44,5.86,1.82,5.82,4.44,5.82,4.48-1.75,4.48-5.82Z"/><path class="cls-4" d="m503.56,147.81v-24.38h4.08v11.17l-.15,3.42,2.91-3.2,4.84-4.73h4.99l-7.17,6.99,7.17,10.74h-4.77l-5.17-8.3-2.66,2.62v5.68h-4.08Z"/><path class="cls-4" d="m520.74,138.97c0-5.57,3.46-9.24,8.44-9.24,5.31,0,8.26,3.53,8.26,8.44,0,.65-.07,1.42-.15,1.78h-12.66c.22,3.17,2.07,4.88,4.88,4.88,3.09,0,4.48-1.6,5.13-3.09l2.51,2.62c-1.35,2.04-3.75,3.82-7.68,3.82-5.28,0-8.73-3.68-8.73-9.21Zm3.93-1.64h9.1c-.29-2.8-1.89-4.33-4.59-4.33-2.51,0-4.19,1.46-4.51,4.33Zm2.62-9.43l2.77-4.33h5.06l-4.26,4.33h-3.57Z"/><path class="cls-4" d="m541.02,147.81v-17.72h4.08v4.84c.65-2.8,2.4-5.2,5.75-5.2s4.99,1.89,5.17,5.24c.62-2.8,2.37-5.24,5.75-5.24s5.17,2.07,5.17,5.75v12.34h-4.08v-11.1c0-2.44-1.02-3.68-3.42-3.68s-3.42,1.93-3.42,4.84v9.94h-4.08v-11.1c0-2.44-1.02-3.68-3.42-3.68s-3.42,1.93-3.42,4.84v9.94h-4.08Z"/><path class="cls-4" d="m578.69,147.81v-17.72h4.08v4.84c.65-2.8,2.47-5.2,6-5.2s5.57,2.07,5.57,5.75v12.34h-4.11v-11.1c0-2.18-.73-3.68-3.46-3.68-2.98,0-4,1.93-4,4.84v9.94h-4.08Z"/><path class="cls-4" d="m597.65,143.99c0-2.51,1.75-4.04,4.62-5.17l5.93-2.51c-.15-1.78-.95-2.98-3.38-2.98s-4.22,1.38-5.24,3.24l-2.44-2.91c1.38-1.89,4.15-3.93,8.08-3.93,4.4,0,6.88,2.51,6.88,6.88v6.66c0,.8.29,1.06.95,1.06h1.13v3.49h-2.51c-1.89,0-3.38-.87-3.38-3.42v-1.31c-.55,2.33-2.26,5.1-5.97,5.1-2.91,0-4.66-1.64-4.66-4.19Zm6.11,1.02c2.69,0,4.51-1.6,4.51-4v-1.89l-4.55,2.04c-1.53.69-2.15,1.31-2.15,2.22,0,1.02.69,1.64,2.18,1.64Z"/><path class="cls-4" d="m616.25,138.97c0-5.71,2.77-9.24,7.06-9.24,3.53,0,5.09,2.37,5.68,5.13v-11.43h4.08v24.38h-4.08v-4.69c-.58,2.73-2.07,5.1-5.6,5.1-4.37,0-7.13-3.53-7.13-9.24Zm8.7,5.93c2.84,0,4.04-1.89,4.04-4.8v-2.22c0-2.91-1.2-4.84-4.08-4.84-2.55,0-4.48,1.97-4.48,5.93s1.93,5.93,4.51,5.93Z"/><path class="cls-4" d="m643.15,140.17l3.57-2.62c.47,3.89,2.26,6.7,6,6.7,3.53,0,4.73-1.6,4.73-6.44v-14.37h4.11v14.96c0,7.06-2.88,9.79-8.84,9.79-5.06,0-8.44-3.06-9.57-8.01Z"/><path class="cls-4" d="m665.94,127.58v-4.15h4.08v4.15h-4.08Zm0,20.23v-17.72h4.08v17.72h-4.08Z"/><path class="cls-4" d="m673.29,147.81v-3.17l7.97-8.88,2.62-2.4-4.15.22h-5.79v-3.49h14.63v3.17l-7.97,8.63-2.8,2.66,4.59-.18h6.55v3.46h-15.65Z"/><path class="cls-4" d="m690.07,138.97c0-5.57,3.46-9.24,8.44-9.24,5.31,0,8.26,3.53,8.26,8.44,0,.65-.07,1.42-.15,1.78h-12.66c.22,3.17,2.07,4.88,4.88,4.88,3.09,0,4.48-1.6,5.13-3.09l2.51,2.62c-1.35,2.04-3.75,3.82-7.68,3.82-5.28,0-8.73-3.68-8.73-9.21Zm3.93-1.64h9.1c-.29-2.8-1.89-4.33-4.59-4.33-2.51,0-4.19,1.46-4.51,4.33Z"/><path class="cls-4" d="m710.34,147.81v-17.72h4.08v5.02c.65-2.84,2.44-5.39,5.6-5.39,2.22,0,3.86,1.46,3.86,4.08,0,1.71-.47,2.98-.8,3.53h-4.19c.58-.58,1.13-1.75,1.13-2.77s-.47-1.78-1.67-1.78c-2.04,0-3.93,2.33-3.93,5.28v9.75h-4.08Z"/><path class="cls-4" d="m725.01,138.97c0-5.53,3.49-9.24,8.59-9.24s8.66,3.71,8.66,9.24-3.49,9.21-8.66,9.21-8.59-3.71-8.59-9.21Zm13.1,0c0-4.11-1.82-5.86-4.48-5.86s-4.44,1.75-4.44,5.86,1.82,5.82,4.44,5.82,4.48-1.75,4.48-5.82Z"/><path class="cls-4" d="m745.65,142.43v-12.34h4.08v11.1c0,2.18.73,3.68,3.46,3.68,2.98,0,4-1.93,4-4.84v-9.94h4.11v17.72h-4.11v-4.84c-.66,2.8-2.48,5.2-6.01,5.2s-5.53-2.07-5.53-5.75Z"/><path class="cls-4" d="m182.24,105.31c-1.07-.13-3.16-1.13-26.93-13.44-30.41-15.75-81.32-42.1-90.33-43.64-10.46-1.77-46.25,19.58-59.14,27.97l-2.73-4.19c4.91-3.19,48.39-31.15,62.71-28.71,9.03,1.54,50.3,22.64,91.79,44.13,12.42,6.43,24.14,12.5,25.57,12.99,0,0-.14-.05-.35-.07l-.59,4.97Z"/><path class="cls-4" d="m182.32,105.32l-39.85-3.38c-1.58-.04-3.88.5-6.13,1.02-5.21,1.22-11.12,2.6-14.28-1.44-4.3-5.49-8.61-6.92-13.6-8.58-3.63-1.21-7.39-2.45-11.18-5.36-.47.05-1.62.73-2.32,1.15-1.41.84-3.01,1.79-4.82,1.96-4.84.46-8.46-.53-10.78-2.94-2.18-2.27-2.99-5.6-2.4-9.9.69-5.02-.07-6.68-.58-7.23-.89-.95-3.37-.77-5.98-.58-4.59.34-10.88.79-15.22-4.73-2.57-3.27-3.47-6.68-2.67-10.13,1.71-7.35,10.81-11.81,11.2-11.99l2.17,4.5-1.08-2.25,1.09,2.25c-2.04.99-7.55,4.47-8.5,8.63-.44,1.92.12,3.85,1.73,5.9,2.7,3.44,6.7,3.14,10.93,2.84,3.67-.27,7.47-.54,9.99,2.15,2.05,2.18,2.65,5.78,1.88,11.33-.37,2.71-.02,4.65,1.05,5.76,1.5,1.56,4.47,1.64,6.69,1.43.69-.07,1.78-.71,2.74-1.28,2.02-1.2,5.07-3.01,7.88-.85,3.14,2.42,6.35,3.48,9.76,4.61,5.28,1.75,10.74,3.56,15.96,10.24,1.19,1.52,5.63.48,9.2-.35,2.71-.63,5.28-1.22,7.5-1.15h.12s39.92,3.39,39.92,3.39l-.42,4.98Z"/><g class="cls-2"><rect class="cls-4" x="11.48" y="63.94" width="89.54" height="1.5" transform="translate(-26.84 85.77) rotate(-63.23)"/><rect class="cls-4" x="16.67" y="63.94" width="89.54" height="1.5" transform="translate(-23.99 90.41) rotate(-63.23)"/><rect class="cls-4" x="21.86" y="63.94" width="89.54" height="1.5" transform="translate(-21.13 95.04) rotate(-63.23)"/><rect class="cls-4" x="27.04" y="63.94" width="89.54" height="1.5" transform="translate(-18.28 99.67) rotate(-63.23)"/><rect class="cls-4" x="32.23" y="63.94" width="89.54" height="1.5" transform="translate(-15.43 104.31) rotate(-63.23)"/><rect class="cls-4" x="37.42" y="63.94" width="89.54" height="1.5" transform="translate(-12.58 108.94) rotate(-63.23)"/><rect class="cls-4" x="42.61" y="63.94" width="89.54" height="1.5" transform="translate(-9.72 113.57) rotate(-63.23)"/><rect class="cls-4" x="47.8" y="63.94" width="89.54" height="1.5" transform="translate(-6.87 118.21) rotate(-63.23)"/><rect class="cls-4" x="52.99" y="63.94" width="89.54" height="1.5" transform="translate(-4.02 122.84) rotate(-63.23)"/><rect class="cls-4" x="58.18" y="63.94" width="89.54" height="1.5" transform="translate(-1.17 127.47) rotate(-63.23)"/><rect class="cls-4" x="63.37" y="63.94" width="89.54" height="1.5" transform="translate(1.68 132.11) rotate(-63.23)"/><rect class="cls-4" x="68.56" y="63.94" width="89.54" height="1.5" transform="translate(4.54 136.74) rotate(-63.23)"/><rect class="cls-4" x="73.75" y="63.94" width="89.54" height="1.5" transform="translate(7.39 141.37) rotate(-63.23)"/><rect class="cls-4" x="78.94" y="63.94" width="89.54" height="1.5" transform="translate(10.24 146.01) rotate(-63.23)"/><rect class="cls-4" x="84.13" y="63.94" width="89.54" height="1.5" transform="translate(13.09 150.64) rotate(-63.23)"/><rect class="cls-4" x="89.65" y="63.94" width="89.54" height="1.5" transform="translate(16.13 155.57) rotate(-63.23)"/><rect class="cls-4" x="94.84" y="63.94" width="89.54" height="1.5" transform="translate(18.98 160.2) rotate(-63.23)"/><rect class="cls-4" x="100.35" y="63.94" width="89.54" height="1.5" transform="translate(22.01 165.13) rotate(-63.23)"/><rect class="cls-4" x="105.54" y="63.94" width="89.54" height="1.5" transform="translate(24.87 169.76) rotate(-63.23)"/><rect class="cls-4" x="111.06" y="63.94" width="89.54" height="1.5" transform="translate(27.9 174.69) rotate(-63.23)"/><rect class="cls-4" x="116.25" y="63.94" width="89.54" height="1.5" transform="translate(30.75 179.32) rotate(-63.23)"/><rect class="cls-4" x="121.77" y="63.94" width="89.54" height="1.5" transform="translate(33.79 184.25) rotate(-63.23)"/><rect class="cls-4" x="126.96" y="63.94" width="89.54" height="1.5" transform="translate(36.64 188.89) rotate(-63.23)"/><rect class="cls-4" x="132.48" y="63.94" width="89.54" height="1.5" transform="translate(39.67 193.81) rotate(-63.23)"/><rect class="cls-4" x="137.67" y="63.94" width="89.54" height="1.5" transform="translate(42.52 198.45) rotate(-63.23)"/></g><path class="cls-4" d="m93.5,5c48.8,0,88.5,39.7,88.5,88.5s-39.7,88.5-88.5,88.5S5,142.3,5,93.5,44.7,5,93.5,5m0-5C41.86,0,0,41.86,0,93.5s41.86,93.5,93.5,93.5,93.5-41.86,93.5-93.5S145.14,0,93.5,0h0Z"/><polygon class="cls-3" points="161.76 136.67 25.24 136.67 60.4 95.22 124.03 95.22 161.76 136.67"/><path class="cls-4" d="m161.76,139.17H25.24c-.97,0-1.86-.57-2.27-1.45s-.27-1.92.36-2.67l35.16-41.45c.47-.56,1.17-.88,1.91-.88h63.63c.7,0,1.38.3,1.85.82l37.72,41.45c.67.73.84,1.79.44,2.69-.4.91-1.3,1.49-2.29,1.49Zm-131.12-5h125.46l-33.17-36.45h-61.37l-30.92,36.45Z"/><polygon class="cls-3" points="93.47 79.3 60.39 95.22 124.04 95.22 93.47 79.3"/><path class="cls-4" d="m124.04,97.72h-63.65c-1.17,0-2.18-.81-2.44-1.94-.26-1.14.3-2.3,1.35-2.81l33.08-15.92c.71-.34,1.54-.33,2.24.04l30.56,15.92c1.02.53,1.55,1.69,1.27,2.81-.27,1.12-1.28,1.91-2.43,1.91Zm-52.68-5h42.47l-20.39-10.62-22.08,10.62Z"/><path class="cls-4" d="m81.1,126.45h-11.56c-1.38,0-2.5-1.12-2.5-2.5v-17.01c0-1.38,1.12-2.5,2.5-2.5h11.56c1.38,0,2.5,1.12,2.5,2.5v17.01c0,1.38-1.12,2.5-2.5,2.5Zm-9.06-5h6.56v-12.01h-6.56v12.01Z"/><path class="cls-4" d="m117.46,126.45h-11.56c-1.38,0-2.5-1.12-2.5-2.5v-17.01c0-1.38,1.12-2.5,2.5-2.5h11.56c1.38,0,2.5,1.12,2.5,2.5v17.01c0,1.38-1.12,2.5-2.5,2.5Zm-9.06-5h6.56v-12.01h-6.56v12.01Z"/><path class="cls-4" d="m124.04,53.56c-7.57,0-13.73-6.16-13.73-13.73s6.16-13.73,13.73-13.73,13.73,6.16,13.73,13.73-6.16,13.73-13.73,13.73Zm0-22.46c-4.81,0-8.73,3.92-8.73,8.73s3.92,8.73,8.73,8.73,8.73-3.92,8.73-8.73-3.92-8.73-8.73-8.73Z"/><rect class="cls-4" x="29.25" y="136.55" width="5" height="24.94"/><rect class="cls-4" x="152.77" y="136.55" width="5" height="24.94"/><path class="cls-4" d="m50.3,175.18l-3.54-3.54c13.1-13.1,29.79-20.32,46.99-20.32s33.45,7.03,46.47,19.8l-3.5,3.57c-12.07-11.84-27.33-18.37-42.97-18.37s-31.3,6.7-43.46,18.85Z"/></g></svg>