<svg width="215" height="207" viewBox="0 0 215 207" fill="none" xmlns="http://www.w3.org/2000/svg">
<g clip-path="url(#clip0_417_69)">
<path d="M182.92 107.17C182.92 65.37 149.03 31.48 107.23 31.48C65.43 31.48 31.54 65.37 31.54 107.17C31.54 128.83 40.64 148.36 55.21 162.15V162.2H55.27C68.83 175 87.11 182.85 107.23 182.85C127.35 182.85 145.63 175 159.19 162.2H159.26V162.13C173.83 148.33 182.92 128.81 182.92 107.16V107.17ZM155.21 160.33C151.69 163.51 147.85 166.35 143.75 168.79C133.43 159.24 120.6 153.99 107.44 153.99C94.28 153.99 81.32 159.29 70.96 168.94C66.77 166.47 62.85 163.59 59.26 160.35V144.15H155.21V160.34V160.33ZM56.35 140.09L81.38 110.58H131.06L157.91 140.09H56.35ZM78 77.07C78.61 74.44 81.45 72.15 83.46 70.89L78.57 80.59C77.92 79.39 77.73 78.23 78 77.07ZM84.92 70.69C85.58 70.86 86.4 71.13 87.36 71.49L81.32 83.46C80.62 83.09 79.97 82.57 79.4 81.85C79.38 81.82 79.36 81.79 79.34 81.76L84.92 70.7V70.69ZM88.5 71.92C89.22 72.2 90.01 72.52 90.86 72.88L85.11 84.28C84.18 84.26 83.29 84.16 82.45 83.92L88.5 71.93V71.92ZM91.98 73.35C92.72 73.67 93.49 74.01 94.31 74.37L89.43 84.06C89.04 84.08 88.65 84.11 88.26 84.14C87.66 84.18 87.07 84.23 86.49 84.25L91.98 73.35ZM95.42 74.87C96.16 75.21 96.94 75.56 97.73 75.92L93.52 84.27C92.67 84.06 91.75 84 90.81 84L95.42 74.86V74.87ZM98.83 76.43C99.58 76.78 100.34 77.14 101.13 77.51L96.69 86.31C96.58 86.16 96.47 86.01 96.34 85.87C95.84 85.34 95.28 84.95 94.67 84.67L98.83 76.43ZM98.12 91.81C98.13 90.09 97.9 88.69 97.42 87.56L102.23 78.02C102.98 78.38 103.74 78.74 104.52 79.11L98.12 91.8V91.81ZM97.87 95.04C97.87 95.04 97.87 95.01 97.87 94.99L105.61 79.64C106.36 80 107.12 80.37 107.89 80.75L99.67 97.05L97.86 97.92C97.71 97.13 97.7 96.17 97.86 95.04H97.87ZM133.81 107.57L139.35 96.58C140.18 97.01 141 97.43 141.82 97.85L135.81 109.77L133.81 107.57ZM132.87 106.74L130.62 105.57L136.01 94.87C136.76 95.26 137.52 95.64 138.27 96.03L132.87 106.74ZM129.54 105.01L127.08 103.73L132.46 93.06C133.29 93.48 134.11 93.9 134.93 94.32L129.54 105.01ZM126 103.17L123.75 102L129.12 91.36C129.87 91.74 130.63 92.13 131.38 92.51L126 103.17ZM122.67 101.44L120.42 100.27L125.77 89.66C126.52 90.04 127.28 90.42 128.03 90.81L122.67 101.44ZM119.34 99.71L117.09 98.54L122.42 87.98C123.17 88.36 123.93 88.74 124.68 89.12L119.34 99.71ZM116.01 97.98L113.76 96.81L119.06 86.3C119.81 86.68 120.57 87.06 121.33 87.44L116.01 97.99V97.98ZM112.68 96.25L110.43 95.08L115.7 84.62C116.45 84.99 117.21 85.37 117.97 85.75L112.68 96.25ZM109.35 94.52L108.14 93.89C107.76 93.69 107.33 93.63 106.92 93.69L112.33 82.95C113.08 83.32 113.84 83.7 114.6 84.07L109.34 94.51L109.35 94.52ZM105.21 94.4L101.46 96.2L108.97 81.3C109.72 81.67 110.48 82.04 111.25 82.42L105.21 94.4ZM107.18 97.95L123.69 106.55H89.31L107.18 97.95ZM136.67 110.75L142.88 98.43C143.64 98.82 144.39 99.21 145.14 99.59L139.24 111.3C138.64 111.43 138.05 111.54 137.47 111.63L136.67 110.75ZM146.22 100.14C147.05 100.57 147.87 100.99 148.69 101.41L144.26 110.2C143.22 110.38 142.12 110.63 141 110.89C140.93 110.91 140.85 110.92 140.78 110.94L146.23 100.14H146.22ZM149.76 101.97C150.52 102.36 151.27 102.75 152.01 103.13L148.51 110.08L147.16 109.97H147.06C146.62 109.95 146.17 109.97 145.7 110.01L149.75 101.97H149.76ZM153.09 103.69C153.93 104.12 154.75 104.55 155.55 104.97L152.79 110.45L149.81 110.2L153.09 103.7V103.69ZM156.63 105.52C156.84 105.63 157.05 105.74 157.26 105.85C157.82 106.14 158.36 106.42 158.88 106.69L156.82 110.78L154.1 110.55L156.64 105.52H156.63ZM159.96 107.24C160.82 107.68 161.64 108.11 162.42 108.51L161.1 111.13L158.12 110.88L159.96 107.23V107.24ZM163.5 109.07C164.29 109.48 165.04 109.87 165.75 110.23L165.12 111.47L162.4 111.24L163.5 109.06V109.07ZM166.83 110.79C167.51 111.14 168.16 111.48 168.77 111.79L166.43 111.59L166.83 110.79ZM107.22 35.52C146.72 35.52 178.86 67.66 178.86 107.16C178.86 108.87 178.8 110.57 178.68 112.25C175.66 110.81 167.59 106.63 159.12 102.24C125.53 84.85 92.12 67.76 84.81 66.52C75.18 64.88 49.27 80.21 38.49 86.93C47.24 57.24 74.74 35.51 107.22 35.51V35.52ZM35.59 107.17C35.59 102.19 36.1 97.33 37.07 92.64C45.68 87.1 64.42 75.92 76.19 71.91C75.22 73.14 74.42 74.56 74.05 76.14C73.4 78.93 74.13 81.69 76.21 84.34C79.73 88.81 84.81 88.44 88.53 88.17C90.65 88.02 92.65 87.87 93.37 88.64C93.78 89.08 94.4 90.43 93.84 94.49C93.56 96.5 93.68 98.23 94.15 99.7L79.54 106.73C79.22 106.88 78.96 107.11 78.76 107.39L50.42 140.8C49.91 141.4 49.8 142.24 50.13 142.96C50.46 143.68 51.18 144.13 51.97 144.13H55.21V156.37C43.05 143.53 35.58 126.2 35.58 107.16L35.59 107.17ZM74.71 171C84.14 162.62 95.64 158.03 107.44 158.03C119.24 158.03 130.63 162.57 140.02 170.86C130.19 175.94 119.04 178.82 107.23 178.82C95.42 178.82 84.47 176 74.71 171ZM159.26 144.14H162.49C163.29 144.14 164.02 143.67 164.34 142.93C164.66 142.2 164.53 141.34 163.99 140.75L140.66 115.11C141.08 115.02 141.51 114.92 141.92 114.82C143.74 114.4 145.6 113.96 146.88 113.99L178.25 116.65C176.22 131.92 169.36 145.69 159.26 156.36V144.13V144.14Z" fill="#233022"/>
<path d="M97.2001 116.03H87.8401C86.7201 116.03 85.8201 116.94 85.8201 118.05V131.82C85.8201 132.94 86.7301 133.84 87.8401 133.84H97.2001C98.3201 133.84 99.2201 132.93 99.2201 131.82V118.05C99.2201 116.93 98.3101 116.03 97.2001 116.03ZM95.1801 129.8H89.8701V120.08H95.1801V129.8Z" fill="#233022"/>
<path d="M126.63 116.03H117.27C116.15 116.03 115.25 116.94 115.25 118.05V131.82C115.25 132.94 116.16 133.84 117.27 133.84H126.63C127.75 133.84 128.65 132.93 128.65 131.82V118.05C128.65 116.93 127.74 116.03 126.63 116.03ZM124.61 129.8H119.3V120.08H124.61V129.8Z" fill="#233022"/>
<path d="M131.95 74.84C138.08 74.84 143.06 69.85 143.06 63.73C143.06 57.61 138.07 52.62 131.95 52.62C125.83 52.62 120.84 57.61 120.84 63.73C120.84 69.85 125.83 74.84 131.95 74.84ZM131.95 56.66C135.85 56.66 139.02 59.83 139.02 63.73C139.02 67.63 135.85 70.8 131.95 70.8C128.05 70.8 124.88 67.63 124.88 63.73C124.88 59.83 128.05 56.66 131.95 56.66Z" fill="#233022"/>
<path d="M9.43 104.03C3.44 103.24 -0.740002 98.81 0.109998 92.3C0.699998 87.8 3.39 84.87 7.26 83.77L9.8 87.95C7.11 88.23 4.77 89.72 4.35 92.88C3.87 96.51 6.26 98.75 10.05 99.25C13.84 99.75 16.72 98.2 17.2 94.57C17.62 91.41 15.74 89.36 13.21 88.4L16.75 85.01C20.2 87.07 22.04 90.6 21.45 95.1C20.59 101.62 15.41 104.82 9.42 104.03H9.43Z" fill="#233022"/>
<path d="M22.83 84.71L3.21997 77.27L4.80997 73.09L12.65 76.07L15.83 67.7L7.98997 64.72L9.57997 60.54L29.19 67.98L27.6 72.16L19.55 69.1L16.37 77.47L24.42 80.53L22.83 84.71Z" fill="#233022"/>
<path d="M29.37 67.18L16.47 48.88L19.71 44.12L41.46 49.44L38.69 53.5L33.9 52.25L29.14 59.23L32.04 63.25L29.36 67.18H29.37ZM26.78 55.98L30 51.25L25.38 50.03L21 48.56L23.97 52.1L26.78 55.98Z" fill="#233022"/>
<path d="M42.3401 49.02L27.8701 33.84L31.1101 30.75L42.8401 43.05L50.4301 35.82L53.1701 38.7L42.3401 49.02Z" fill="#233022"/>
<path d="M48.08 30.96L41.74 21.05L45.51 18.64L51.88 28.61C53.84 31.67 55.8 32.19 58.34 30.57C60.92 28.92 61.2 26.96 59.24 23.9L52.87 13.93L56.64 11.52L62.98 21.43C66.52 26.97 65.68 31 60.64 34.22C55.71 37.37 51.62 36.49 48.08 30.96Z" fill="#233022"/>
<path d="M69.95 28.27L62.79 8.55996L70.97 5.58996C75.5 3.93996 79.73 4.76996 81.54 9.73996C83.3 14.59 80.65 17.92 76.06 19.59L72.09 21.03L74.16 26.74L69.95 28.27ZM68.35 10.77L70.72 17.3L74.55 15.91C76.73 15.12 77.97 13.67 77.12 11.35C76.22 8.87996 74.35 8.58996 72.18 9.37996L68.35 10.77Z" fill="#233022"/>
<path d="M83.56 22.89L88.2 0.979995L93.89 0.119995L104.79 19.68L99.93 20.41L97.59 16.05L89.23 17.31L88.25 22.17L83.55 22.88L83.56 22.89ZM90 13.37L95.66 12.51L93.41 8.29L91.51 4.08L90.94 8.66L90 13.36V13.37Z" fill="#233022"/>
<path d="M111.54 15.92L114.94 12.93C115.96 15.73 118.8 17.31 121.28 17.66C123.08 17.92 124.46 17.55 124.66 16.12C124.89 14.51 123.6 13.79 120.93 12.83L118.98 12.11C115.85 11 113.02 9.13997 113.58 5.19997C114.16 1.13997 117.97 -0.490026 122.18 0.109974C126.08 0.669974 129 2.59997 130.38 5.32997L126.89 8.27997C125.84 5.91997 123.59 4.38997 121.2 4.04997C119.62 3.81997 118.38 4.33997 118.2 5.54997C117.98 7.06997 119.23 7.81997 121.33 8.61997L123.6 9.50997C127.34 10.96 129.75 12.92 129.22 16.64C128.65 20.6 125 22.26 120.51 21.62C116.52 21.05 113.02 19.22 111.53 15.91L111.54 15.92Z" fill="#233022"/>
<path d="M130 23L137.17 3.30005L151.64 8.57005L150.28 12.3L140.02 8.56005L138.51 12.71L147.1 15.84L145.74 19.57L137.15 16.44L135.57 20.7901L145.83 24.5301L144.47 28.26L130 22.99V23Z" fill="#233022"/>
<path d="M147.58 22.79L152.42 22.16C151.27 24.98 151.34 27.65 153.81 29.13C155.79 30.32 157.26 30 159.01 27.11L165.48 16.36L169.31 18.67L162.55 29.9C159.51 34.94 155.87 35.41 151.63 32.86C147.93 30.63 146.51 27.11 147.58 22.78V22.79Z" fill="#233022"/>
<path d="M160.52 38.04L174.89 22.77L178.15 25.84L174.07 30.17L171.28 32.96L175.84 32.36L184.3 31.64L188.13 35.24L177.14 36.28L173.99 50.72L170.23 47.18L172.61 36.48L167.82 36.82L163.79 41.1L160.53 38.03L160.52 38.04Z" fill="#233022"/>
<path d="M181.57 43.39C186.55 39.97 192.87 40.83 196.42 45.99C199.97 51.15 198.5 57.36 193.52 60.78C188.52 64.22 182.19 63.36 178.65 58.2C175.1 53.04 176.57 46.83 181.58 43.39H181.57ZM190.84 56.88C193.91 54.77 195.05 51.63 192.86 48.43C190.68 45.26 187.32 45.17 184.25 47.28C181.15 49.41 180.05 52.56 182.23 55.73C184.43 58.93 187.75 59 190.84 56.88Z" fill="#233022"/>
<path d="M185.42 68.34L205.03 60.9L208.48 70C210.09 74.24 209.31 78.09 205.15 79.67C201.67 80.99 198.98 79.3 197.39 76.25C197.57 77.96 196.91 79.14 195.86 80.51L191.94 85.54L190.11 80.71L194.41 75.29C195.44 74.03 195.57 72.97 194.92 71.25L194.34 69.73L186.99 72.52L185.4 68.34H185.42ZM202.9 66.49L197.72 68.46L199.53 73.23C200.22 75.04 201.44 76.05 203.28 75.35C205.18 74.63 205.4 73.07 204.71 71.26L202.9 66.49Z" fill="#233022"/>
<path d="M192.12 85.79L213.9 91.02L214.6 96.74L194.75 107.1L194.15 102.22L198.58 100L197.55 91.61L192.71 90.5L192.13 85.78L192.12 85.79ZM201.46 92.49L202.16 98.18L206.44 96.04L210.7 94.25L206.14 93.55L201.47 92.49H201.46Z" fill="#233022"/>
<path d="M12.0801 117.24L17.2601 116.5L17.4801 118.01L12.2901 118.75C10.5001 119.01 9.86006 119.72 10.0701 121.2C10.2901 122.71 11.1001 123.19 12.8901 122.93L18.0801 122.19L18.3001 123.7L13.1201 124.44C10.3801 124.83 8.96006 123.87 8.61006 121.4C8.26006 118.99 9.35006 117.63 12.0901 117.24H12.0801Z" fill="#233022"/>
<path d="M10.2 129.55L19.02 127.19L20.09 131.19C20.57 132.98 19.85 134.08 18.54 134.42C17.37 134.73 16.43 134 15.93 132.61C16.31 134.65 15.6 135.6 14.42 135.92C12.85 136.34 11.76 135.37 11.26 133.48L10.21 129.55H10.2ZM14.49 130L11.91 130.69L12.5 132.91C12.82 134.12 13.37 134.57 14.26 134.33C15.15 134.09 15.36 133.29 15.09 132.26L14.48 130H14.49ZM18.1 129.04L15.74 129.67L16.31 131.79C16.55 132.67 16.98 133.2 17.88 132.96C18.78 132.72 18.9 132.02 18.65 131.1L18.1 129.03V129.04Z" fill="#233022"/>
<path d="M14.05 142.14L17.13 140.96L21.34 135.66L22.02 137.44L20.16 139.6L18.54 141.24L20.84 141.42L23.7 141.84L24.34 143.51L17.66 142.4L14.58 143.58L14.03 142.14H14.05Z" fill="#233022"/>
<path d="M18.1899 151.63L25.1099 148.1L23.8399 145.61L25.0499 144.99L28.2899 151.35L27.0799 151.97L25.7999 149.47L18.8799 153L18.1799 151.63H18.1899Z" fill="#233022"/>
<path d="M25.26 155.27C27.46 153.83 30.18 154.22 31.64 156.47C33.1 158.71 32.38 161.36 30.17 162.8C27.96 164.25 25.24 163.84 23.78 161.61C22.31 159.36 23.04 156.72 25.26 155.28V155.27ZM29.3 161.45C30.87 160.42 31.47 158.87 30.43 157.28C29.39 155.68 27.72 155.6 26.15 156.63C24.56 157.67 23.98 159.22 25.03 160.81C26.07 162.41 27.72 162.49 29.3 161.45Z" fill="#233022"/>
<path d="M30.26 170.23L35.13 161.82L36.26 163.17L33.33 167.98L31.75 170.19L34.21 169.04L39.46 167.02L40.53 168.31L31.38 171.6L30.25 170.25L30.26 170.23Z" fill="#233022"/>
<path d="M34.8401 175.58L43.7501 171.51L45.0201 172.74L41.2401 181.78L40.0301 180.6L41.0001 178.34L38.2301 175.66L36.0001 176.71L34.8401 175.58ZM39.5201 175.05L41.5601 177.03L42.6101 174.61L43.4001 173.09L41.9001 173.93L39.5101 175.05H39.5201ZM44.3501 170.89L46.2201 170.5L47.5801 171.82H45.3101L44.3501 170.89Z" fill="#233022"/>
<path d="M43.78 183.91L49.34 176.67L50.47 177.54L50.17 184L50.01 185.68L50.99 184.25L54.04 180.27L55.26 181.21L49.7 188.45L48.58 187.59L48.86 181L48.99 179.47L48.06 180.85L45 184.84L43.78 183.9V183.91Z" fill="#233022"/>
<path d="M53.55 190.97L58.42 183.25L59.7201 184.07L54.85 191.79L53.55 190.97ZM58.7701 182.46L60.5201 181.7L62.12 182.71L59.89 183.18L58.76 182.47L58.7701 182.46Z" fill="#233022"/>
<path d="M64.76 192.11C65.1 191.41 65.92 191.14 66.59 191.46C67.28 191.79 67.57 192.6 67.23 193.3C66.9 193.97 66.08 194.26 65.4 193.93C64.74 193.61 64.44 192.78 64.77 192.11H64.76Z" fill="#233022"/>
<path d="M76.15 201.72L75.74 192.01L77.41 192.54L77.52 198.16L77.37 200.87L78.83 198.58L82.17 194.06L83.77 194.57L77.82 202.25L76.15 201.72Z" fill="#233022"/>
<path d="M86.79 204.57L87.44 201.34L85.22 194.95L87.09 195.33L87.92 198.05L88.44 200.29L89.83 198.44L91.72 196.25L93.47 196.6L88.96 201.64L88.31 204.87L86.8 204.57H86.79Z" fill="#233022"/>
<path d="M94.1899 203.84L95.3799 202.85C95.7399 204.23 97.0599 204.87 98.1699 204.98C99.0799 205.07 99.8399 204.81 99.9199 203.98C99.9999 203.1 99.2999 202.78 98.1399 202.41L97.2999 202.14C96.0399 201.75 94.7199 201.03 94.8899 199.31C95.0499 197.6 96.6199 196.82 98.3299 196.98C99.9999 197.14 101.26 197.96 101.79 199.27L100.53 200.26C100.14 199.09 99.2099 198.5 98.0899 198.4C97.2199 198.32 96.5599 198.66 96.4899 199.36C96.4099 200.16 97.0099 200.5 97.9799 200.84L98.9699 201.18C100.39 201.67 101.63 202.37 101.47 204.1C101.31 205.74 99.8399 206.56 97.9999 206.38C96.2599 206.21 94.7399 205.44 94.1799 203.84H94.1899Z" fill="#233022"/>
<path d="M104.77 202.17C104.71 199.54 106.48 197.45 109.17 197.39C111.84 197.33 113.71 199.35 113.77 201.98C113.83 204.62 112.04 206.72 109.37 206.77C106.69 206.83 104.83 204.81 104.77 202.16V202.17ZM112.15 202.02C112.11 200.14 111.12 198.81 109.21 198.85C107.3 198.89 106.35 200.26 106.39 202.14C106.43 204.03 107.44 205.35 109.35 205.31C111.26 205.27 112.2 203.91 112.16 202.02H112.15Z" fill="#233022"/>
<path d="M118.02 206.15L116.72 197.12L118.24 196.9L118.63 199.64L118.83 201.41L119.92 199.74L122.35 196.31L124.2 196.05L121.36 200.12L125.69 205.06L123.87 205.32L120.43 201.38L119.15 203.19L119.54 205.94L118.02 206.16V206.15Z" fill="#233022"/>
<path d="M129.15 204.3L126.88 195.46L133.14 193.85L133.48 195.17L128.72 196.39L129.32 198.74L133.27 197.73L133.61 199.05L129.66 200.06L130.31 202.59L135.07 201.37L135.41 202.69L129.15 204.3ZM128.94 194.04L129.59 192.24L131.42 191.77L130.23 193.71L128.94 194.04Z" fill="#233022"/>
<path d="M144.15 199.68L140.45 191.33L141.76 190.75L147.29 194.11L148.69 195.05L147.9 193.51L145.87 188.93L147.28 188.31L150.98 196.66L149.68 197.23L144.03 193.83L142.75 192.98L143.52 194.46L145.56 199.06L144.15 199.68Z" fill="#233022"/>
<path d="M153.95 195.16L152.38 185.48L153.91 184.58L161.63 190.62L160.17 191.48L158.25 189.94L154.93 191.9L155.35 194.33L153.95 195.15V195.16ZM154.68 190.5L157.13 189.05L155.08 187.4L153.82 186.23L154.24 187.9L154.69 190.5H154.68Z" fill="#233022"/>
<path d="M164.35 188.74L158.83 181.47L161.57 179.39C163.82 177.68 166.08 178.15 167.79 180.4C169.5 182.65 169.35 184.95 167.09 186.66L164.34 188.74H164.35ZM160.88 181.62L164.75 186.72L166.13 185.67C167.63 184.53 167.9 183.18 166.51 181.36C165.13 179.54 163.75 179.44 162.24 180.58L160.87 181.62H160.88Z" fill="#233022"/>
<path d="M174.84 176.32L175.05 174.67C176.23 175.54 177.45 175.78 178.42 174.76C179.33 173.8 179.2 173.06 177.89 171.81L173.98 168.11L175.04 166.99L179.11 170.84C181.03 172.66 181.03 174.14 179.5 175.77C178.2 177.15 176.49 177.28 174.86 176.31L174.84 176.32Z" fill="#233022"/>
<path d="M184.53 169.83L177.4 164.14L178.36 162.94L185.49 168.63L184.53 169.83Z" fill="#233022"/>
<path d="M187.7 165.82L186.7 165.14L184.7 159.12L184.13 157.11L183.46 158.22L181.42 161.25L180.29 160.49L184.02 154.97L185.02 155.65L187.14 162.07L187.59 163.67L188.12 162.76L190.6 159.09L191.73 159.85L187.69 165.82H187.7Z" fill="#233022"/>
<path d="M193.54 156.81L185.5 152.5L188.55 146.81L189.75 147.45L187.43 151.78L189.57 152.93L191.5 149.34L192.7 149.98L190.78 153.57L193.08 154.81L195.4 150.48L196.6 151.12L193.55 156.81H193.54Z" fill="#233022"/>
<path d="M198.23 147.63L189.76 144.21L191.3 140.39C191.99 138.67 193.4 137.74 195.14 138.44C196.56 139.01 197 140.32 196.61 141.71C196.97 141.27 197.42 141.05 198.07 140.96L201.09 140.5L200.43 142.14L197.32 142.59C196.62 142.68 196.25 143.03 195.93 143.82L195.51 144.86L198.8 146.19L198.22 147.62L198.23 147.63ZM191.6 143.29L194.36 144.4L195.27 142.15C195.63 141.25 195.61 140.35 194.59 139.94C193.52 139.51 192.88 140.15 192.51 141.04L191.6 143.29Z" fill="#233022"/>
<path d="M197.74 136.25C195.2 135.57 193.69 133.28 194.38 130.69C195.07 128.11 197.54 126.88 200.08 127.57C202.63 128.26 204.14 130.55 203.45 133.13C202.75 135.72 200.29 136.94 197.74 136.25ZM199.66 129.12C197.84 128.63 196.29 129.21 195.79 131.06C195.29 132.9 196.34 134.2 198.16 134.69C199.99 135.18 201.53 134.58 202.03 132.74C202.53 130.9 201.49 129.62 199.66 129.12Z" fill="#233022"/>
<path d="M201.4 124.2L196.22 123.47L196.43 121.96L201.63 122.69C203.42 122.94 204.24 122.44 204.45 120.95C204.66 119.44 204.01 118.76 202.22 118.5L197.02 117.77L197.23 116.26L202.41 116.99C205.15 117.37 206.24 118.7 205.9 121.17C205.56 123.59 204.14 124.58 201.4 124.2Z" fill="#233022"/>
</g>
<defs>
<clipPath id="clip0_417_69">
<rect width="214.6" height="206.77" fill="white"/>
</clipPath>
</defs>
</svg>
