<?xml version="1.0" encoding="UTF-8"?><svg id="Layer_2" xmlns="http://www.w3.org/2000/svg" viewBox="0 0 171.04 63.91"><defs><style>.cls-1{fill:#3c3c3b;}</style></defs><g id="Objects"><path class="cls-1" d="m156.25,62.6c2-4.4-4.96-10.79-7.81-13.05-4.32-3.42-10.44-6.78-16.33-7.65,5.3-.5,10.62-1.69,15.95-3.8,8.3.28,18.94-3.97,22.88-11.62.25-.48,0-1.14-.5-1.35-7.86-3.22-17.39,5-22.23,10.64-.06.01-.11,0-.17.03-.05.02-.1.04-.16.06-.01,0-.02,0-.04,0-.29,0-.51.1-.67.27-11.1,4.27-22.08,4.58-32.98,2.98,7.49-2.5,14.83-4.71,21.03-9.98,2.1-1.78,6.82-6.39,3.51-9.1-3.7-3.03-12.3,1.97-15.56,3.76-4.79,2.63-10.02,6.8-11.98,12.15-.29.26-.57.51-.84.77-.32.3-.08,1,.38.79-.04.19-.1.38-.13.57-.04.02-.09.03-.13.05-.18.07-.32.17-.42.29-11.88-2.25-23.66-6.48-35.38-10.05,7.31-.84,15.7-3.5,20.6-8.28,2.76-2.69,4.79-7.98-.36-9.12-5.48-1.22-12.7,2.34-17.29,4.89-2.76,1.53-8.38,4.63-9.55,8.44-.52.31-1.02.63-1.52.98-.27.19-.25.52-.09.75-4.93-1.32-10.28-2.58-15.82-3.53-.01-.01-.03-.02-.04-.04-.18-.14-.36-.13-.5-.05-5.83-.97-11.85-1.57-17.77-1.51,5.56-2.96,11.84-5.27,16.35-9.62,2.53-2.44,5.97-9.2.75-10.95-4.8-1.61-11.06,3.98-14.13,6.87-2.93,2.75-6.38,6.66-6.94,10.83-.08.13-.18.25-.26.38-.17.26-.04.62.18.76,0,.62.06,1.24.21,1.87-10.55.66-20.56,3.71-28.3,10.94-.46.43.05,1.22.59.82,13.51-9.96,30.32-10.99,46.74-8.61.01.07,0,.14.03.21,2.81,7.62,6.22,15.95,12.04,21.79,1.52,1.52,7.82,5.13,8.55.98.71-4.04-4.77-9.83-6.91-12.65-2.31-3.04-4.78-6.44-7.57-9.29,6.9,1.33,13.65,3.15,19.97,5.05,5.96,1.79,11.96,3.77,17.99,5.59-.03.08-.04.17-.05.27-1.01,11.33,10.62,21.5,19.34,26.8.61.37,1.46-.17,1.55-.82,1.46-9.92-7.56-18.55-15.39-24.65,9.34,2.63,18.76,4.65,28.22,4.75-.02.18,0,.37.11.58,3.49,7.15,9.73,12.6,16.41,16.71,1.98,1.21,12.69,7.01,14.45,3.14ZM29.69,18.18c1.94-1.85,3.73-3.82,5.83-5.52,3.12-2.53,6.68-4.4,10.34-6.01.39-.17.17-.76-.23-.62-4.88,1.71-10.38,4.61-14.35,8.49,3.67-6.38,11.78-12.68,17.08-12.37,3.31.19,1,5.19.01,6.46-1.79,2.29-4.64,3.86-7.12,5.28-3.29,1.88-9.22,3.39-11.9,6.45.02-.69.14-1.42.34-2.16Zm34.93,24.33c.22.39,2.43,4.54,1.14,4.48-2.91-.13-5.23-2.74-6.88-4.82-3.54-4.48-5.87-9.94-7.97-15.3,3.48,5.04,6.31,10.52,9.64,15.66.19.29.69.03.54-.29-2.94-6.21-6.2-12.24-10.51-17.61.32.05.64.11.96.16,4.98,5.32,9.53,11.43,13.07,17.72Zm4.88-15.69c-.26-.07-.53-.15-.79-.22.09-.47.24-.91.42-1.35,6.88-2.9,13.9-4.88,20.98-7.33.49-.17.2-.86-.28-.74-6.26,1.55-13.13,2.78-19.07,5.62,1.79-1.96,4.36-3.46,6.4-4.66,4.29-2.52,9.25-4.46,14.19-5.19,7.38-1.09,4.11,4.77.02,7.48-5.89,3.9-14.21,6.04-21.23,6.14-.29,0-.5.1-.65.25Zm40.93,33.11c-7.68-5.25-17.17-13.7-16.57-23.44.06.02.12.04.18.05,0,0,.01,0,.02.01-.03.09-.05.18-.02.29,1.89,6.53,5.43,12.66,9.82,17.82.42.49,1.19-.05.82-.59-3.61-5.33-7.18-10.43-9.42-16.49,6.71,5.76,15.46,13.65,15.17,22.34Zm1.49-22.34c.17-.37.37-.72.57-1.08,6.78-3.93,12.43-9.12,20.51-10.71.4-.08.36-.68-.06-.64-6.16.53-12.69,3.78-18.01,7.71,4.8-5.91,12.39-9.91,19.62-11.2,4.11-.73,2.41,2.46.94,4.16-2.38,2.74-5.67,4.85-8.86,6.48-4.64,2.38-9.79,3.6-14.71,5.28Zm56.58-11c-3.32,5.13-10.16,8.17-16.43,9.01,4.08-2.09,7.91-4.71,12.15-6.5.39-.17.17-.77-.23-.62-4.83,1.76-9.48,4.26-13.95,6.85,5-4.26,11.99-10.55,18.46-8.74Zm-18.36,34.06c-3.53-.98-6.65-2.67-9.69-4.7-4.44-2.96-8.62-6.91-11.49-11.51,4.68,3.91,9.74,7.55,15.15,10.3.44.22.87-.46.46-.74-5.37-3.63-10.7-7.24-15.91-11.08,10.04,1.09,21.47,7.31,25.24,16.96,1.08,2.77-2.31,1.17-3.76.77Z"/></g></svg>