<svg width="48" height="48" viewBox="0 0 48 48" fill="none" xmlns="http://www.w3.org/2000/svg">
<path d="M22.1 35.9C18.2667 35.9 14.9583 34.5417 12.175 31.825C9.39167 29.1083 8 25.8833 8 22.15V9C8 8.2 8.3 7.5 8.9 6.9C9.5 6.3 10.2 6 11 6H37.45C39.259 6 40.803 6.61667 42.0818 7.85C43.3606 9.08333 44 10.6 44 12.4C44 14.2 43.3606 15.7167 42.0818 16.95C40.803 18.1833 39.259 18.8 37.45 18.8H36.2V22.15C36.2 25.8833 34.8083 29.1083 32.025 31.825C29.2417 34.5417 25.9333 35.9 22.1 35.9ZM11 15.8H33.2V9H11V15.8ZM22.1 32.9C25.1333 32.9 27.7417 31.8417 29.925 29.725C32.1083 27.6083 33.2 25.0833 33.2 22.15V18.8H11V22.15C11 25.0833 12.0917 27.6083 14.275 29.725C16.4583 31.8417 19.0667 32.9 22.1 32.9ZM36.2 15.8H37.45C38.4167 15.8 39.25 15.475 39.95 14.825C40.65 14.175 41 13.3667 41 12.4C41 11.4333 40.65 10.625 39.95 9.975C39.25 9.325 38.4167 9 37.45 9H36.2V15.8ZM8 42V39H39.7V42H8Z" fill="#233022"/>
</svg>
