<svg width="48" height="48" viewBox="0 0 48 48" fill="none" xmlns="http://www.w3.org/2000/svg">
<path d="M14 44V31.55H10.45C9.25 31.55 8.20833 31.1417 7.325 30.325C6.44167 29.5083 6 28.5 6 27.3C6 26.4 6.225 25.5583 6.675 24.775C7.125 23.9917 7.76667 23.4167 8.6 23.05L22.65 17.05V14.95C21.4167 14.6167 20.4083 13.9417 19.625 12.925C18.8417 11.9083 18.45 10.7667 18.45 9.5C18.45 7.96667 19 6.66667 20.1 5.6C21.2 4.53333 22.5167 4 24.05 4C25.5833 4 26.9 4.53333 28 5.6C29.1 6.66667 29.65 7.96667 29.65 9.5H26.65C26.65 8.8 26.3917 8.20833 25.875 7.725C25.3583 7.24167 24.75 7 24.05 7C23.35 7 22.7417 7.24167 22.225 7.725C21.7083 8.20833 21.45 8.8 21.45 9.5C21.45 10.2667 21.7083 10.9083 22.225 11.425C22.7417 11.9417 23.3833 12.2 24.15 12.2C24.55 12.2 24.9 12.3417 25.2 12.625C25.5 12.9083 25.65 13.25 25.65 13.65V17.05L39.4 23.05C40.2333 23.4167 40.875 23.9917 41.325 24.775C41.775 25.5583 42 26.4 42 27.3C42 28.5 41.5583 29.5083 40.675 30.325C39.7917 31.1417 38.75 31.55 37.55 31.55H34V44H14ZM10.45 28.55H14V26H34V28.55H37.55C37.9167 28.55 38.25 28.425 38.55 28.175C38.85 27.925 39 27.6167 39 27.25C39 26.95 38.9167 26.6833 38.75 26.45C38.5833 26.2167 38.3667 26.0333 38.1 25.9L24.15 19.6L9.9 25.9C9.63333 26.0333 9.41667 26.2167 9.25 26.45C9.08333 26.6833 9 26.9333 9 27.2C9 27.5667 9.14167 27.8833 9.425 28.15C9.70833 28.4167 10.05 28.55 10.45 28.55ZM17 41H31V29H17V41Z" fill="#233022"/>
</svg>
